<svg width="11" height="12" viewBox="0 0 11 12" fill="none" xmlns="http://www.w3.org/2000/svg">
<path d="M4.77573 1.20592L4.77573 9.09108L1.24054 5.64618C0.958011 5.37087 0.49438 5.37087 0.211854 5.64618C0.144697 5.71148 0.0914169 5.78906 0.0550647 5.87445C0.0187116 5.95985 -4.77342e-07 6.0514 -4.85425e-07 6.14385C-4.93508e-07 6.2363 0.0187115 6.32785 0.0550646 6.41325C0.0914168 6.49865 0.144697 6.57622 0.211853 6.64153L4.98581 11.2936C5.05283 11.359 5.13244 11.4109 5.22007 11.4463C5.30771 11.4818 5.40165 11.5 5.49653 11.5C5.59141 11.5 5.68535 11.4818 5.77299 11.4463C5.86062 11.4109 5.94023 11.359 6.00725 11.2936L10.7885 6.64859C10.8555 6.58323 10.9087 6.50564 10.945 6.42025C10.9813 6.33486 11 6.24334 11 6.15091C11 6.05848 10.9813 5.96696 10.945 5.88157C10.9087 5.79618 10.8555 5.71859 10.7885 5.65324C10.7214 5.58788 10.6418 5.53604 10.5541 5.50067C10.4665 5.4653 10.3726 5.44709 10.2777 5.44709C10.1829 5.44709 10.089 5.4653 10.0013 5.50067C9.91371 5.53604 9.83408 5.58788 9.76701 5.65324L6.22458 9.09108L6.22458 1.20592C6.22458 0.817666 5.89859 0.500001 5.50015 0.5C5.10172 0.5 4.77573 0.817666 4.77573 1.20592Z" fill="white"/>
</svg>
