<svg width="42" height="48" viewBox="0 0 42 48" fill="none" xmlns="http://www.w3.org/2000/svg">
<path d="M6.54551 0.527832H19.4593H31.8764C39.4259 0.527832 41.3133 5.16354 41.3133 7.4814C41.6445 16.7528 41.1574 36.1058 41.3133 39.7658C41.5373 45.0226 38.055 49.8218 34.8565 45.726C32.8697 41.3552 29.3929 42.5803 27.9029 43.7393C26.2473 45.2293 21.8434 47.7127 17.4725 45.726C12.009 43.2426 12.009 43.2426 6.54551 45.726C2.17469 47.7127 0.419745 43.9048 0.088623 41.7525V7.4814C0.088623 1.91854 4.39321 0.527832 6.54551 0.527832Z" fill="#3376FF"/>
<rect x="5.05518" y="9.46814" width="29.801" height="5.9602" rx="2.9801" fill="white"/>
<rect x="5.05518" y="19.402" width="25.8275" height="4.96683" rx="2.48342" fill="white"/>
<rect x="5.05518" y="28.342" width="18.874" height="5.9602" rx="2.9801" fill="white"/>
</svg>
