<svg width="26" height="27" viewBox="0 0 26 27" fill="none" xmlns="http://www.w3.org/2000/svg">
  <path d="M24.6473 21.8856L21.2354 22.5415L20.0974 19.26" stroke="#455A64" stroke-width="2" stroke-linecap="round" stroke-linejoin="round" />
  <path d="M1 5.11113L4.39115 4.45898L5.52343 7.72349" stroke="#455A64" stroke-width="2" stroke-linecap="round" stroke-linejoin="round" />
  <path d="M4.38926 4.45504C2.17575 6.4644 1 9.52476 1 13.5C1 21.0611 5.25312 25.3142 12.8142 25.3142C14.6081 25.3142 16.2167 25.0742 17.625 24.6091M21.2467 22.5374C23.4565 20.528 24.6284 17.4715 24.6284 13.5C24.6284 5.93891 20.3753 1.68579 12.8142 1.68579C11.0166 1.68579 9.40605 1.92586 7.99402 2.39464" stroke="#455A64" stroke-width="2" stroke-linecap="round" stroke-linejoin="round" />
  <path d="M15.9559 10.0747C15.9559 10.0747 14.7763 8.75904 12.8596 8.92161C10.9448 9.08795 10.0204 10.2637 10.0204 11.4451C10.0204 14.8854 15.9559 12.4999 15.9559 16.0309C15.9559 17.8494 12.0184 19.1348 9.67261 16.995M13.094 6.60791V8.90837M13.094 18.0913V20.3918" stroke="#455A64" stroke-width="2" stroke-linecap="round" stroke-linejoin="round" />
</svg>
