<svg width="61" height="61" viewBox="0 0 61 61" fill="none" xmlns="http://www.w3.org/2000/svg">
<path opacity="0.21" fill-rule="evenodd" clip-rule="evenodd" d="M0 30.5V48C0 55.1797 5.8203 61 13 61H30.5H48C55.1797 61 61 55.1797 61 48V30.5V13C61 5.8203 55.1797 0 48 0H30.5H13C5.8203 0 0 5.8203 0 13V30.5Z" fill="#FEC53D"/>
<path fill-rule="evenodd" clip-rule="evenodd" d="M15.25 24.7218L28.3655 32.294C28.5067 32.3756 28.6548 32.4345 28.8056 32.4719V47.1578L16.1854 39.6892C15.6056 39.3461 15.25 38.7224 15.25 38.0487V24.7218ZM45.7503 24.5205V38.0487C45.7503 38.7224 45.3947 39.3461 44.8149 39.6892L32.1948 47.1579V32.3432C32.2255 32.3278 32.256 32.3115 32.2862 32.294L45.7503 24.5205Z" fill="#FEC53D"/>
<path opacity="0.499209" fill-rule="evenodd" clip-rule="evenodd" d="M15.6621 21.0466C15.8223 20.8443 16.0245 20.6733 16.2603 20.5477L29.604 13.4406C30.1642 13.1422 30.8361 13.1422 31.3963 13.4406L44.74 20.5477C44.9217 20.6445 45.0835 20.7683 45.2215 20.9126L30.5915 29.3592C30.4953 29.4148 30.4066 29.4783 30.3258 29.5486C30.245 29.4783 30.1563 29.4148 30.0601 29.3592L15.6621 21.0466Z" fill="#FEC53D"/>
</svg>
