<svg width="26" height="26" viewBox="0 0 26 26" fill="none" xmlns="http://www.w3.org/2000/svg">
<path d="M7.58337 7.58331H6.50004C5.9254 7.58331 5.3743 7.81159 4.96798 8.21791C4.56165 8.62424 4.33337 9.17534 4.33337 9.74998V19.5C4.33337 20.0746 4.56165 20.6257 4.96798 21.032C5.3743 21.4384 5.9254 21.6666 6.50004 21.6666H16.25C16.8247 21.6666 17.3758 21.4384 17.7821 21.032C18.1884 20.6257 18.4167 20.0746 18.4167 19.5V18.4166" stroke="#202224" stroke-width="2" stroke-linecap="round" stroke-linejoin="round"/>
<path d="M17.3333 5.41666L20.5833 8.66666M22.0837 7.13374C22.5104 6.70708 22.7501 6.12839 22.7501 5.52499C22.7501 4.9216 22.5104 4.34291 22.0837 3.91624C21.6571 3.48958 21.0784 3.24988 20.475 3.24988C19.8716 3.24988 19.2929 3.48958 18.8663 3.91624L9.75 13V16.25H13L22.0837 7.13374Z" stroke="#202224" stroke-width="2" stroke-linecap="round" stroke-linejoin="round"/>
</svg>
