<svg width="60" height="60" viewBox="0 0 60 60" fill="none" xmlns="http://www.w3.org/2000/svg">
<path opacity="0.21" fill-rule="evenodd" clip-rule="evenodd" d="M0 30V47C0 54.1797 5.8203 60 13 60H30H47C54.1797 60 60 54.1797 60 47V30V13C60 5.8203 54.1797 0 47 0H30H13C5.8203 0 0 5.8203 0 13V30Z" fill="#4AD991"/>
<path d="M19.1111 40.8888H42.4444C43.3036 40.8888 44 41.5853 44 42.4444C44 43.3035 43.3036 43.9999 42.4444 43.9999H17.5556C16.6964 43.9999 16 43.3035 16 42.4444V17.5555C16 16.6964 16.6964 15.9999 17.5556 15.9999C18.4147 15.9999 19.1111 16.6964 19.1111 17.5555V40.8888Z" fill="#4AD991"/>
<path opacity="0.5" d="M24.9131 34.1749C24.3255 34.8017 23.3411 34.8334 22.7143 34.2458C22.0876 33.6583 22.0558 32.6739 22.6434 32.0471L28.4767 25.8249C29.045 25.2187 29.9893 25.1662 30.6213 25.7055L35.2253 29.6343L41.224 22.036C41.7563 21.3617 42.7345 21.2466 43.4088 21.779C44.0831 22.3113 44.1982 23.2895 43.6658 23.9638L36.6658 32.8305C36.1191 33.523 35.1063 33.6226 34.4351 33.0499L29.7311 29.0357L24.9131 34.1749Z" fill="#4AD991"/>
</svg>
