<svg width="15" height="19" viewBox="0 0 15 19" fill="none" xmlns="http://www.w3.org/2000/svg">
<path d="M5.625 2.44906e-07C5.23709 -0.000192945 4.85867 0.113914 4.54189 0.326596C4.2251 0.539278 3.98555 0.840064 3.85625 1.1875H1.875C1.37772 1.1875 0.900805 1.37517 0.549175 1.70922C0.197544 2.04327 0 2.49633 0 2.96875V17.2188C0 17.6912 0.197544 18.1442 0.549175 18.4783C0.900805 18.8123 1.37772 19 1.875 19H13.125C13.6223 19 14.0992 18.8123 14.4508 18.4783C14.8025 18.1442 15 17.6912 15 17.2188V2.96875C15 2.49633 14.8025 2.04327 14.4508 1.70922C14.0992 1.37517 13.6223 1.1875 13.125 1.1875H11.1438C11.0144 0.840064 10.7749 0.539278 10.4581 0.326596C10.1413 0.113914 9.76291 -0.000192945 9.375 2.44906e-07H5.625ZM5 1.78125C5 1.62378 5.06585 1.47276 5.18306 1.36141C5.30027 1.25006 5.45924 1.1875 5.625 1.1875H9.375C9.54076 1.1875 9.69973 1.25006 9.81694 1.36141C9.93415 1.47276 10 1.62378 10 1.78125C10 1.93872 9.93415 2.08975 9.81694 2.20109C9.69973 2.31244 9.54076 2.375 9.375 2.375H5.625C5.45924 2.375 5.30027 2.31244 5.18306 2.20109C5.06585 2.08975 5 1.93872 5 1.78125ZM6.6925 6.95162L4.505 9.02975C4.39113 9.13779 4.23778 9.19995 4.07689 9.20327C3.91599 9.20658 3.75994 9.15081 3.64125 9.04756L2.70375 8.23413C2.64004 8.1824 2.58794 8.11903 2.55054 8.04778C2.51313 7.97653 2.49119 7.89887 2.48602 7.81941C2.48085 7.73994 2.49256 7.66031 2.52044 7.58523C2.54833 7.51015 2.59182 7.44116 2.64833 7.38237C2.70485 7.32359 2.77323 7.2762 2.84942 7.24303C2.9256 7.20985 3.00803 7.19157 3.0918 7.18928C3.17557 7.18698 3.25897 7.20071 3.33704 7.22965C3.41511 7.25859 3.48626 7.30216 3.54625 7.35775L4.0425 7.78762L5.8075 6.11088C5.86561 6.05567 5.9346 6.01188 6.01052 5.982C6.08644 5.95213 6.16782 5.93675 6.25 5.93675C6.33218 5.93675 6.41356 5.95213 6.48948 5.982C6.5654 6.01188 6.63439 6.05567 6.6925 6.11088C6.75061 6.16608 6.79671 6.23162 6.82815 6.30374C6.8596 6.37587 6.87579 6.45318 6.87579 6.53125C6.87579 6.60932 6.8596 6.68663 6.82815 6.75876C6.79671 6.83088 6.75061 6.89642 6.6925 6.95162ZM6.6925 12.0484C6.7507 12.1035 6.79688 12.1691 6.82839 12.2412C6.8599 12.3133 6.87612 12.3907 6.87612 12.4688C6.87612 12.5468 6.8599 12.6242 6.82839 12.6963C6.79688 12.7684 6.7507 12.834 6.6925 12.8891L4.505 14.9672C4.39113 15.0753 4.23778 15.1374 4.07689 15.1408C3.91599 15.1441 3.75994 15.0883 3.64125 14.9851L2.70375 14.1716C2.58764 14.064 2.52011 13.9178 2.51543 13.7637C2.51075 13.6097 2.56928 13.46 2.67867 13.3462C2.78805 13.2324 2.93972 13.1635 3.10161 13.154C3.2635 13.1445 3.42295 13.1951 3.54625 13.2952L4.0425 13.7263L5.8075 12.0484C5.86556 11.9931 5.93453 11.9492 6.01046 11.9193C6.08639 11.8893 6.16779 11.8739 6.25 11.8739C6.33221 11.8739 6.41361 11.8893 6.48954 11.9193C6.56547 11.9492 6.63444 11.9931 6.6925 12.0484ZM8.75 12.7656H11.875C12.0408 12.7656 12.1997 12.8282 12.3169 12.9395C12.4342 13.0509 12.5 13.2019 12.5 13.3594C12.5 13.5168 12.4342 13.6679 12.3169 13.7792C12.1997 13.8906 12.0408 13.9531 11.875 13.9531H8.75C8.58424 13.9531 8.42527 13.8906 8.30806 13.7792C8.19085 13.6679 8.125 13.5168 8.125 13.3594C8.125 13.2019 8.19085 13.0509 8.30806 12.9395C8.42527 12.8282 8.58424 12.7656 8.75 12.7656ZM8.125 7.42188C8.125 7.2644 8.19085 7.11338 8.30806 7.00203C8.42527 6.89068 8.58424 6.82812 8.75 6.82812H11.875C12.0408 6.82812 12.1997 6.89068 12.3169 7.00203C12.4342 7.11338 12.5 7.2644 12.5 7.42188C12.5 7.57935 12.4342 7.73037 12.3169 7.84172C12.1997 7.95307 12.0408 8.01562 11.875 8.01562H8.75C8.58424 8.01562 8.42527 7.95307 8.30806 7.84172C8.19085 7.73037 8.125 7.57935 8.125 7.42188Z" fill="#9DA5B5"/>
</svg>
