<svg width="17" height="18" viewBox="0 0 17 18" fill="none" xmlns="http://www.w3.org/2000/svg">
<path d="M12.9524 7.30812C14.1586 7.30812 15.2757 7.68859 16.1905 8.32811V4.87956C16.1905 3.981 15.47 3.26053 14.5714 3.26053H11.3333V1.6415C11.3333 0.742931 10.6129 0.0224609 9.7143 0.0224609H6.4762C5.57763 0.0224609 4.85715 0.742931 4.85715 1.6415V3.26053H1.61905C0.720477 3.26053 0.00809524 3.981 0.00809524 4.87956L0 13.7843C0 14.6828 0.720477 15.4033 1.61905 15.4033H7.8362C7.42548 14.54 7.24005 13.5867 7.29717 12.6323C7.3543 11.678 7.65213 10.7537 8.1629 9.94547C8.67368 9.1373 9.38076 8.4716 10.2182 8.01044C11.0557 7.54927 11.9963 7.30766 12.9524 7.30812ZM6.4762 1.6415H9.7143V3.26053H6.4762V1.6415Z" fill="#9DA5B5"/>
<path d="M12.9529 8.92725C10.7186 8.92725 8.90527 10.7406 8.90527 12.9748C8.90527 15.2091 10.7186 17.0224 12.9529 17.0224C15.1872 17.0224 17.0005 15.2091 17.0005 12.9748C17.0005 10.7406 15.1872 8.92725 12.9529 8.92725ZM14.2886 14.8772L12.5481 13.1367V10.5463H13.3577V12.8048L14.8553 14.3024L14.2886 14.8772Z" fill="#9DA5B5"/>
</svg>
