<svg width="25" height="24" viewBox="0 0 25 24" fill="none" xmlns="http://www.w3.org/2000/svg">
<path fill-rule="evenodd" clip-rule="evenodd" d="M9.5 14.833C4.3761 14.833 0 15.7452 0 19.4001C0 23.0534 4.34811 24.0001 9.5 24.0001C14.6239 24.0001 19 23.0863 19 19.433C19 15.7797 14.6519 14.833 9.5 14.833Z" fill="#263238"/>
<path fill-rule="evenodd" clip-rule="evenodd" d="M9.34672 11.632C12.5167 11.632 15.0567 9.04356 15.0567 5.81599C15.0567 2.58715 12.5167 0 9.34672 0C6.17797 0 3.63672 2.58715 3.63672 5.81599C3.63672 9.04356 6.17797 11.632 9.34672 11.632Z" fill="#263238"/>
<path d="M21 6.68433V13.8143" stroke="#6CD818" stroke-width="2" stroke-linecap="round" stroke-linejoin="round"/>
<path d="M24 10.2495H18" stroke="#6CD818" stroke-width="2" stroke-linecap="round" stroke-linejoin="round"/>
</svg>
