<svg width="62" height="61" viewBox="0 0 62 61" fill="none" xmlns="http://www.w3.org/2000/svg">
<path opacity="0.21" fill-rule="evenodd" clip-rule="evenodd" d="M0.0158691 30.5V48C0.0158691 55.1797 5.83617 61 13.0159 61H30.5359H48.056C55.2357 61 61.056 55.1797 61.056 48V30.5154C61.056 30.5103 61.056 30.5051 61.056 30.5C61.056 30.4949 61.056 30.4897 61.056 30.4846V13C61.056 5.8203 55.2357 0 48.056 0H30.5359H13.0159C5.83617 0 0.0158691 5.8203 0.0158691 13V30.5Z" fill="#8280FF"/>
<path opacity="0.587821" fill-rule="evenodd" clip-rule="evenodd" d="M21.0393 23.722C21.0393 26.7166 23.4685 29.1442 26.4651 29.1442C29.4617 29.1442 31.8909 26.7166 31.8909 23.722C31.8909 20.7274 29.4617 18.2998 26.4651 18.2998C23.4685 18.2998 21.0393 20.7274 21.0393 23.722ZM34.603 29.1448C34.603 31.3907 36.4249 33.2115 38.6724 33.2115C40.9198 33.2115 42.7417 31.3907 42.7417 29.1448C42.7417 26.8988 40.9198 25.0781 38.6724 25.0781C36.4249 25.0781 34.603 26.8988 34.603 29.1448Z" fill="#8280FF"/>
<path fill-rule="evenodd" clip-rule="evenodd" d="M26.443 31.8553C20.0386 31.8553 14.7842 35.1446 14.2585 41.6142C14.2298 41.9666 14.9042 42.6997 15.2444 42.6997H37.6518C38.6708 42.6997 38.6866 41.8803 38.6708 41.6153C38.2733 34.9638 32.9375 31.8553 26.443 31.8553ZM46.0734 42.6996H40.8432C40.8432 39.6483 39.8343 36.8325 38.1317 34.5671C42.7525 34.6175 46.5254 36.9522 46.8094 41.8862C46.8208 42.085 46.8094 42.6996 46.0734 42.6996Z" fill="#8280FF"/>
</svg>
