<svg width="24" height="25" viewBox="0 0 24 25" fill="none" xmlns="http://www.w3.org/2000/svg">
  <path d="M17.13 18.65L16.62 18.14C16.44 17.96 16.2252 17.87 15.9756 17.87C15.726 17.87 15.5108 17.96 15.33 18.14C15.15 18.32 15.06 18.53 15.06 18.77C15.06 19.01 15.15 19.22 15.33 19.4L16.5 20.57C16.68 20.75 16.89 20.84 17.13 20.84C17.37 20.84 17.58 20.75 17.76 20.57L20.67 17.72C20.85 17.54 20.94 17.3248 20.94 17.0744C20.94 16.824 20.85 16.6092 20.67 16.43C20.49 16.25 20.2748 16.16 20.0244 16.16C19.774 16.16 19.5592 16.25 19.38 16.43L17.13 18.65ZM16.8 7.7C17.14 7.7 17.4252 7.5848 17.6556 7.3544C17.886 7.124 18.0008 6.8392 18 6.5C18 6.16 17.8848 5.8748 17.6544 5.6444C17.424 5.414 17.1392 5.2992 16.8 5.3H4.8C4.46 5.3 4.1748 5.4152 3.9444 5.6456C3.714 5.876 3.5992 6.1608 3.6 6.5C3.6 6.84 3.7152 7.1252 3.9456 7.3556C4.176 7.586 4.4608 7.7008 4.8 7.7H16.8ZM18 24.5C16.34 24.5 14.9252 23.9148 13.7556 22.7444C12.586 21.574 12.0008 20.1592 12 18.5C12 16.84 12.5852 15.4248 13.7556 14.2544C14.926 13.084 16.3408 12.4992 18 12.5C19.66 12.5 21.0752 13.0852 22.2456 14.2556C23.416 15.426 24.0008 16.8408 24 18.5C24 20.16 23.4148 21.5752 22.2444 22.7456C21.074 23.916 19.6592 24.5008 18 24.5ZM2.4 0.500002H19.2C19.86 0.500002 20.4252 0.735202 20.8956 1.2056C21.366 1.676 21.6008 2.2408 21.6 2.9V10.91C21.04 10.63 20.4548 10.4248 19.8444 10.2944C19.234 10.164 18.6192 10.0992 18 10.1H4.8C4.46 10.1 4.1748 10.2152 3.9444 10.4456C3.714 10.676 3.5992 10.9608 3.6 11.3C3.6 11.64 3.7152 11.9252 3.9456 12.1556C4.176 12.386 4.4608 12.5008 4.8 12.5H12.12C11.78 12.84 11.4652 13.21 11.1756 13.61C10.886 14.01 10.6308 14.44 10.41 14.9H4.8C4.46 14.9 4.1748 15.0152 3.9444 15.2456C3.714 15.476 3.5992 15.7608 3.6 16.1C3.6 16.44 3.7152 16.7252 3.9456 16.9556C4.176 17.186 4.4608 17.3008 4.8 17.3H9.69C9.65 17.5 9.6248 17.6952 9.6144 17.8856C9.604 18.076 9.5992 18.2808 9.6 18.5C9.6 19.34 9.7152 20.1452 9.9456 20.9156C10.176 21.686 10.5208 22.4208 10.98 23.12C10.88 23.14 10.7748 23.1248 10.6644 23.0744C10.554 23.024 10.4592 22.9592 10.38 22.88L9.42 21.92C9.3 21.8 9.16 21.74 9 21.74C8.84 21.74 8.7 21.8 8.58 21.92L7.62 22.88C7.5 23 7.36 23.06 7.2 23.06C7.04 23.06 6.9 23 6.78 22.88L5.82 21.92C5.7 21.8 5.56 21.74 5.4 21.74C5.24 21.74 5.1 21.8 4.98 21.92L4.02 22.88C3.9 23 3.76 23.06 3.6 23.06C3.44 23.06 3.3 23 3.18 22.88L2.22 21.92C2.1 21.8 1.96 21.74 1.8 21.74C1.64 21.74 1.5 21.8 1.38 21.92L0.42 22.88L0 23.15V2.9C0 2.24 0.2352 1.6748 0.7056 1.2044C1.176 0.734002 1.7408 0.499202 2.4 0.500002Z" fill="#455A64" />
</svg>
