<svg width="61" height="61" viewBox="0 0 61 61" fill="none" xmlns="http://www.w3.org/2000/svg">
<path opacity="0.21" fill-rule="evenodd" clip-rule="evenodd" d="M0 30.5V48C0 55.1797 5.8203 61 13 61H30.5H48C55.1797 61 61 55.1797 61 48V30.5V13C61 5.8203 55.1797 0 48 0H30.5H13C5.8203 0 0 5.8203 0 13V30.5Z" fill="#8280FF"/>
<path opacity="0.587821" fill-rule="evenodd" clip-rule="evenodd" d="M21.011 23.7224C21.011 26.717 23.4386 29.1446 26.4332 29.1446C29.4278 29.1446 31.8554 26.717 31.8554 23.7224C31.8554 20.7278 29.4278 18.3002 26.4332 18.3002C23.4386 18.3002 21.011 20.7278 21.011 23.7224ZM34.5666 29.1447C34.5666 31.3907 36.3873 33.2114 38.6332 33.2114C40.8792 33.2114 42.6999 31.3907 42.6999 29.1447C42.6999 26.8988 40.8792 25.0781 38.6332 25.0781C36.3873 25.0781 34.5666 26.8988 34.5666 29.1447Z" fill="#8280FF"/>
<path fill-rule="evenodd" clip-rule="evenodd" d="M26.4106 31.8556C20.0104 31.8556 14.7595 35.1449 14.234 41.6145C14.2054 41.9669 14.8794 42.7 15.2193 42.7H37.612C38.6303 42.7 38.6462 41.8806 38.6303 41.6156C38.2331 34.9641 32.9008 31.8556 26.4106 31.8556ZM46.0288 42.7H40.8025V42.6999C40.8025 39.6487 39.7943 36.8329 38.093 34.5675C42.7105 34.6182 46.4806 36.9529 46.7643 41.8867C46.7757 42.0854 46.7643 42.7 46.0288 42.7Z" fill="#8280FF"/>
</svg>
