<svg width="24" height="23" viewBox="0 0 24 23" fill="none" xmlns="http://www.w3.org/2000/svg">
  <path d="M16.262 10.6933C16.262 11.2478 16.262 11.7574 16.262 12.2849C14.9464 12.2849 13.6427 12.2849 12.3112 12.2849C12.3112 13.6124 12.3112 14.922 12.3112 16.2469C11.7685 16.2469 11.253 16.2469 10.7196 16.2469C10.7196 14.9353 10.7196 13.6316 10.7196 12.3007C9.39205 12.3007 8.08172 12.3007 6.75684 12.3007C6.75684 11.7581 6.75684 11.2432 6.75684 10.7092C8.06849 10.7092 9.37285 10.7092 10.7037 10.7092C10.7037 9.38162 10.7037 8.07196 10.7037 6.74707C11.2464 6.74707 11.7619 6.74707 12.2953 6.74707C12.2953 8.05872 12.2953 9.36243 12.2953 10.6933C13.6235 10.6933 14.9331 10.6933 16.262 10.6933Z" fill="#455A64" />
  <path d="M7.92019 -0.00170898C7.92019 0.526392 7.92019 1.03596 7.92019 1.5634C5.80977 1.5634 3.71127 1.5634 1.58563 1.5634C1.58563 3.68507 1.58563 5.78953 1.58563 7.90789C1.04297 7.90789 0.527439 7.90789 0 7.90789C0.000661781 5.2707 0.000661781 2.64343 0.000661781 -0.00170898C2.63521 -0.00170898 5.2691 -0.00170898 7.92019 -0.00170898Z" fill="#455A64" />
  <path d="M23.014 -0.00170898C23.014 2.64343 23.014 5.2707 23.014 7.91054C22.4925 7.91054 21.983 7.91054 21.4463 7.91054C21.4463 5.80674 21.4463 3.70294 21.4463 1.57201C19.3153 1.57201 17.2109 1.57201 15.0945 1.57201C15.0945 1.0353 15.0945 0.52573 15.0945 -0.00170898C17.7284 -0.00170898 20.3623 -0.00170898 23.014 -0.00170898Z" fill="#455A64" />
  <path d="M0.0065918 15.0837C0.534693 15.0837 1.04426 15.0837 1.57236 15.0837C1.57236 17.1942 1.57236 19.292 1.57236 21.417C3.69469 21.417 5.79916 21.417 7.91818 21.417C7.91818 21.9596 7.91818 22.4752 7.91818 23.0019C5.28032 23.0019 2.65239 23.0019 0.00725358 23.0019C0.0065918 20.3681 0.0065918 17.7348 0.0065918 15.0837Z" fill="#455A64" />
  <path d="M15.0945 22.9965C15.0945 22.4684 15.0945 21.9588 15.0945 21.4314C17.2049 21.4314 19.3034 21.4314 21.429 21.4314C21.429 19.3097 21.429 17.2053 21.429 15.0869C21.9717 15.0869 22.4872 15.0869 23.0147 15.0869C23.0147 17.7241 23.0147 20.3514 23.0147 22.9965C20.3795 22.9965 17.7462 22.9965 15.0945 22.9965Z" fill="#455A64" />
</svg>
