<svg width="17" height="16" viewBox="0 0 17 16" fill="none" xmlns="http://www.w3.org/2000/svg">
<path d="M6.3565 15.473C5.11602 15.0996 3.99257 14.4088 3.0955 13.4679C3.38413 13.1228 3.56405 12.6987 3.61225 12.2499C3.66044 11.8011 3.57472 11.3481 3.36604 10.9487C3.15737 10.5493 2.83523 10.2218 2.44086 10.008C2.04649 9.79421 1.59781 9.70392 1.15225 9.74867C1.05074 9.24743 0.999736 8.73712 1 8.22554C1 7.43542 1.12 6.67329 1.3435 5.95727H1.375C1.75741 5.9574 2.13354 5.85926 2.46788 5.67213C2.80221 5.48501 3.08372 5.21506 3.28582 4.88778C3.48793 4.56051 3.60395 4.18671 3.62295 3.80167C3.64194 3.41663 3.56327 3.03307 3.39438 2.6872C4.2736 1.86186 5.3369 1.26191 6.4945 0.937988C6.68289 1.31089 6.96994 1.62399 7.32389 1.84263C7.67784 2.06127 8.08489 2.17694 8.5 2.17684C8.91511 2.17694 9.32216 2.06127 9.67611 1.84263C10.0301 1.62399 10.3171 1.31089 10.5055 0.937988C11.6631 1.26191 12.7264 1.86186 13.6056 2.6872C13.4355 3.03549 13.3569 3.42198 13.3773 3.80967C13.3978 4.19735 13.5166 4.57326 13.7224 4.90141C13.9282 5.22956 14.2141 5.49896 14.5527 5.68383C14.8914 5.8687 15.2714 5.96285 15.6565 5.95727C15.8849 6.69133 16.0007 7.45623 16 8.22554C16 8.74724 15.9475 9.25684 15.8477 9.74905C15.4022 9.7043 14.9535 9.79459 14.5591 10.0084C14.1648 10.2221 13.8426 10.5497 13.634 10.949C13.4253 11.3484 13.3396 11.8015 13.3878 12.2503C13.4359 12.6991 13.6159 13.1231 13.9045 13.4682C13.0074 14.4091 11.8839 15.0997 10.6435 15.473C10.4978 15.0153 10.2118 14.6161 9.82654 14.3328C9.44131 14.0496 8.97681 13.8969 8.5 13.8969C8.02319 13.8969 7.55869 14.0496 7.17346 14.3328C6.78823 14.6161 6.50217 15.0153 6.3565 15.473Z" fill="#9DA5B5" stroke="#ABA7B6" stroke-linejoin="round"/>
<path d="M8.50076 10.8718C8.84548 10.8718 9.18683 10.8034 9.50531 10.6704C9.82378 10.5374 10.1132 10.3425 10.3569 10.0967C10.6007 9.85102 10.794 9.55929 10.9259 9.23823C11.0579 8.91716 11.1258 8.57305 11.1258 8.22553C11.1258 7.87801 11.0579 7.5339 10.9259 7.21283C10.794 6.89177 10.6007 6.60004 10.3569 6.35431C10.1132 6.10858 9.82378 5.91365 9.50531 5.78066C9.18683 5.64767 8.84548 5.57922 8.50076 5.57922C7.80457 5.57922 7.13689 5.85803 6.64461 6.35431C6.15232 6.85059 5.87576 7.52369 5.87576 8.22553C5.87576 8.92737 6.15232 9.60047 6.64461 10.0967C7.13689 10.593 7.80457 10.8718 8.50076 10.8718Z" fill="#9DA5B5" stroke="white" stroke-width="2" stroke-linejoin="round"/>
</svg>
