<svg width="30" height="29" viewBox="0 0 30 29" fill="none" xmlns="http://www.w3.org/2000/svg">
  <path d="M7.06199 2.588C7.06199 2.35161 7.05475 2.14336 7.0636 1.93592C7.10782 0.839217 7.88934 0.0343777 8.98363 0.017493C10.488 -0.00502003 11.9931 -0.0066281 13.4967 0.017493C14.6159 0.0359858 15.4006 0.876203 15.4111 2.00024C15.4127 2.18035 15.4111 2.36126 15.4111 2.588C15.5277 2.588 15.633 2.588 15.7383 2.588C17.5136 2.588 19.289 2.58719 21.0643 2.588C22.3081 2.5888 23.1121 3.39686 23.1154 4.64633C23.1162 5.02824 23.1234 5.41016 23.1138 5.79208C23.0937 6.57199 22.7407 7.15894 22.0468 7.51432C21.8667 7.60679 21.8048 7.70247 21.7992 7.89945C21.6786 12.0475 21.5515 16.1955 21.4237 20.3435C21.3738 21.9508 21.3288 23.558 21.2621 25.1637C21.1865 26.9889 19.8735 28.3043 18.0524 28.3139C13.7299 28.3356 9.40656 28.3348 5.08406 28.3147C3.25006 28.3067 1.9234 26.9848 1.86068 25.1468C1.73365 21.4515 1.6243 17.7545 1.50852 14.0592C1.44419 12 1.37987 9.9409 1.32278 7.88177C1.31796 7.69603 1.25364 7.60598 1.0872 7.52075C0.379649 7.16135 0.0202454 6.57038 0.00496872 5.7768C-0.00307164 5.36513 0.000144503 4.95266 0.00416468 4.541C0.0162252 3.43062 0.842774 2.59523 1.94913 2.59041C3.54353 2.58317 5.13874 2.5888 6.73314 2.5888C6.83204 2.588 6.93013 2.588 7.06199 2.588ZM20.4612 7.75392C14.5283 7.75392 8.56875 7.75392 2.67035 7.75392C2.67035 8.65284 2.64783 9.52682 2.67437 10.3992C2.81909 15.2307 2.99839 20.0613 3.11257 24.8936C3.1399 26.0554 3.90213 27.0661 5.31402 27.0395C7.87085 26.9913 10.4293 27.0259 12.9869 27.0259C14.6722 27.0259 16.3574 27.0339 18.0419 27.0218C19.1273 27.0146 19.9467 26.2242 19.9804 25.1645C20.1428 20.0822 20.3028 14.9999 20.4572 9.91678C20.4797 9.20601 20.4612 8.49283 20.4612 7.75392ZM11.5549 6.44737C14.714 6.44737 17.8731 6.44817 21.0329 6.44737C21.5973 6.44737 21.8305 6.21098 21.8353 5.64011C21.8378 5.3587 21.8361 5.07729 21.8361 4.79588C21.8353 4.06662 21.6384 3.86963 20.9051 3.86963C14.677 3.86963 8.44895 3.86963 2.22009 3.86963C2.13968 3.86963 2.05928 3.86641 1.97968 3.87124C1.54068 3.89455 1.29866 4.13416 1.28499 4.57718C1.27454 4.91889 1.28178 5.26061 1.28258 5.60232C1.28419 6.22947 1.5045 6.44737 2.13727 6.44737C5.27703 6.44737 8.41599 6.44737 11.5549 6.44737ZM8.3798 2.57031C10.3031 2.57031 12.203 2.57031 14.1319 2.57031C14.1319 2.42478 14.1319 2.29613 14.1319 2.16829C14.1303 1.50978 13.9276 1.30717 13.2675 1.30717C11.9947 1.30636 10.7212 1.33209 9.44917 1.29913C8.35327 1.27018 8.32191 1.62476 8.35729 2.469C8.3589 2.49794 8.37016 2.52528 8.3798 2.57031Z" fill="#455A64" />
  <path d="M12.206 18.165C12.206 20.0803 12.206 21.9964 12.206 23.9117C12.206 23.9959 12.2084 24.0802 12.2052 24.1644C12.1908 24.627 11.9431 24.922 11.5676 24.9279C11.1817 24.9338 10.9156 24.6296 10.9139 24.151C10.9099 22.1304 10.9123 20.1089 10.9123 18.0883C10.9123 16.152 10.9115 14.2148 10.9131 12.2785C10.9139 11.7755 11.1383 11.4789 11.5202 11.4595C11.8989 11.4401 12.1771 11.7047 12.2004 12.1344C12.2165 12.4386 12.206 12.7445 12.206 13.0495C12.206 14.755 12.206 16.4604 12.206 18.165Z" fill="#455A64" />
  <path d="M15.2494 18.1921C15.3025 16.2027 15.3564 14.2125 15.4094 12.223C15.4223 11.7251 15.6563 11.4495 16.0599 11.458C16.4635 11.4664 16.6991 11.7529 16.6862 12.2466C16.5841 16.2364 16.4796 20.2262 16.3743 24.2168C16.363 24.6424 16.0872 24.9356 15.7222 24.9297C15.3539 24.9238 15.0902 24.6272 15.0999 24.1941C15.1449 22.1937 15.1972 20.1933 15.247 18.193C15.247 18.1921 15.2478 18.1921 15.2494 18.1921Z" fill="#455A64" />
  <path d="M7.8716 18.2124C7.92064 20.1597 7.97049 22.107 8.01632 24.0542C8.01954 24.2 8.01874 24.3534 7.97934 24.4907C7.89652 24.7772 7.60064 24.9592 7.31923 24.9263C7.01128 24.8901 6.76766 24.634 6.74916 24.2935C6.72344 23.8208 6.71539 23.3464 6.70333 22.8729C6.61248 19.3474 6.52243 15.821 6.43479 12.2955C6.43157 12.1506 6.438 11.9964 6.48303 11.8624C6.58514 11.5642 6.88263 11.4116 7.19138 11.4689C7.48807 11.5245 7.69471 11.7891 7.70516 12.1515C7.74617 13.53 7.78798 14.9085 7.81853 16.2879C7.833 16.9291 7.82094 17.572 7.82094 18.2141C7.83863 18.2124 7.85471 18.2124 7.8716 18.2124Z" fill="#455A64" />
</svg>
