<svg width="87" height="87" viewBox="0 0 87 87" fill="none" xmlns="http://www.w3.org/2000/svg">
<rect width="87" height="87" rx="11" fill="white"/>
<mask id="mask0_2755_5059" style="mask-type:luminance" maskUnits="userSpaceOnUse" x="9" y="27" width="68" height="34">
<path d="M28.6559 51.5185C24.9364 47.7705 21.2312 44.0012 17.4832 40.2746C15.4311 38.2368 14.7898 35.9566 16.9845 33.8333C19.0081 31.8809 21.2454 32.3797 23.1693 34.3677C28.378 39.7545 33.6009 45.127 38.9877 50.6777C36.7432 53.4495 35.254 54.7962 33.6935 54.7962C32.2827 54.7962 30.8077 53.6846 28.6559 51.5185ZM47.9728 50.6777C53.3596 45.127 58.5825 39.7545 63.7912 34.3677C65.715 32.3797 67.9524 31.8738 69.976 33.8333C72.1707 35.9495 71.5294 38.2368 69.4773 40.2746C65.7293 44.0012 62.0312 47.7634 58.3046 51.5185C56.1528 53.6846 54.6778 54.7962 53.2599 54.7962C51.6994 54.7962 50.2173 53.4495 47.9728 50.6777ZM60.1715 29.9357C54.6636 35.2512 49.2269 40.6309 43.4838 46.2528C37.7407 40.6238 32.2969 35.2441 26.789 29.9357C22.7774 26.0666 16.5783 26.0381 12.8375 29.7647C9.00401 33.591 9.01826 39.5621 12.9729 43.6307C16.2505 47.001 19.6209 50.2787 22.9698 53.5777C31.7554 62.2493 33.7363 62.3634 43.4838 54.5895C53.2242 62.3562 55.2122 62.2422 63.9907 53.5777C67.3396 50.2787 70.71 47.001 73.9876 43.6307C77.9422 39.555 77.9636 33.5839 74.123 29.7647C72.2775 27.9263 69.8335 27 67.3468 27C64.7959 27 62.2022 27.9762 60.1715 29.9357Z" fill="white"/>
</mask>
<g mask="url(#mask0_2755_5059)">
<path d="M77.9635 26.0309H9.00391V62.3562H77.9635V26.0309Z" fill="url(#paint0_linear_2755_5059)"/>
</g>
<mask id="mask1_2755_5059" style="mask-type:luminance" maskUnits="userSpaceOnUse" x="41" y="31" width="12" height="12">
<path d="M43.3917 33.3701C40.9762 35.7857 40.9762 39.7046 43.3917 42.1201C43.7052 42.4336 44.0401 42.7044 44.3964 42.9324L52.954 34.3748C52.726 34.0186 52.4552 33.6837 52.1417 33.3701C50.9304 32.1659 49.3485 31.5603 47.7667 31.5603C46.1849 31.5532 44.603 32.1588 43.3917 33.3701Z" fill="white"/>
</mask>
<g mask="url(#mask1_2755_5059)">
<path d="M52.955 31.5532H40.9844V42.9253H52.955V31.5532Z" fill="url(#paint1_linear_2755_5059)"/>
</g>
<defs>
<linearGradient id="paint0_linear_2755_5059" x1="9.00262" y1="44.1971" x2="77.9591" y2="44.1971" gradientUnits="userSpaceOnUse">
<stop stop-color="#3376FF"/>
<stop offset="1" stop-color="#3376FF"/>
</linearGradient>
<linearGradient id="paint1_linear_2755_5059" x1="41.5852" y1="37.2414" x2="52.9558" y2="37.2414" gradientUnits="userSpaceOnUse">
<stop stop-color="#3376FF"/>
<stop offset="1" stop-color="#3376FF"/>
</linearGradient>
</defs>
</svg>
